<svg xmlns="http://www.w3.org/2000/svg" viewBox="0 0 325.7 139.71"><defs><style>.cls-1{fill:#fff;}</style></defs><title>Looker_Logo_White</title><g id="Layer_2" data-name="Layer 2"><g id="Layer_1-2" data-name="Layer 1"><path class="cls-1" d="M10.88,113.17V41.23H0v72.33C0,130.61,10.75,139.85,26.43,138v-10.4C18.14,128,10.88,125,10.88,113.17Z"/><path class="cls-1" d="M76.47,120.18c-.46.6-1,1.18-1.46,1.73C75.52,121.36,76,120.78,76.47,120.18Z"/><path class="cls-1" d="M43.26,121.91c-.5-.55-1-1.13-1.45-1.73C42.27,120.78,42.76,121.36,43.26,121.91Z"/><path class="cls-1" d="M73.41,123.48a19.24,19.24,0,0,1-1.73,1.4A19.24,19.24,0,0,0,73.41,123.48Z"/><path class="cls-1" d="M46.59,124.88a20.76,20.76,0,0,1-1.73-1.4A20.76,20.76,0,0,0,46.59,124.88Z"/><path class="cls-1" d="M81.5,107.21c-.08.81-.19,1.62-.34,2.41C81.31,108.83,81.42,108,81.5,107.21Z"/><path class="cls-1" d="M78.9,116.3c-.35.69-.73,1.36-1.13,2C78.17,117.66,78.55,117,78.9,116.3Z"/><path class="cls-1" d="M80.91,110.79q-.28,1.17-.66,2.28Q80.63,112,80.91,110.79Z"/><path class="cls-1" d="M73.41,123.48a21.53,21.53,0,0,0,1.6-1.57A21.53,21.53,0,0,1,73.41,123.48Z"/><path class="cls-1" d="M40.52,118.31c-.41-.65-.78-1.32-1.13-2C39.74,117,40.11,117.66,40.52,118.31Z"/><path class="cls-1" d="M43.26,121.91c.51.55,1.05,1.08,1.6,1.57C44.31,123,43.77,122.46,43.26,121.91Z"/><path class="cls-1" d="M37.12,109.62c-.15-.79-.26-1.6-.34-2.41C36.86,108,37,108.83,37.12,109.62Z"/><path class="cls-1" d="M38,113.07c-.25-.74-.47-1.5-.65-2.28C37.56,111.57,37.78,112.33,38,113.07Z"/><path class="cls-1" d="M59.09,69.33c-18.91,0-33.56,15.87-33.56,35.4,0,19.25,14.65,35,33.56,35s33.55-15.73,33.55-35C92.64,85.2,78.13,69.33,59.09,69.33ZM81.5,107.21c-.08.81-.19,1.62-.34,2.41-.08.39-.16.78-.25,1.17q-.28,1.17-.66,2.28a25,25,0,0,1-1.35,3.23c-.35.69-.73,1.36-1.13,2s-.84,1.27-1.3,1.87-1,1.18-1.46,1.73a21.53,21.53,0,0,1-1.6,1.57,19.24,19.24,0,0,1-1.73,1.4,21,21,0,0,1-25.09,0,20.76,20.76,0,0,1-1.73-1.4c-.55-.49-1.09-1-1.6-1.57s-1-1.13-1.45-1.73a22.13,22.13,0,0,1-1.29-1.87c-.41-.65-.78-1.32-1.13-2A25,25,0,0,1,38,113.07c-.25-.74-.47-1.5-.65-2.28-.1-.39-.18-.78-.26-1.17-.15-.79-.26-1.6-.34-2.41s-.12-1.65-.12-2.48c0-13.68,10.13-24.87,22.43-24.87s22.53,11.19,22.53,24.87C81.62,105.56,81.58,106.39,81.5,107.21Z"/><polygon class="cls-1" points="225.69 71.03 209.5 71.03 179.05 101.08 179.05 41.23 168.03 41.23 168.03 138.02 179.05 138.02 179.05 116.43 191.87 103.93 214.67 138.02 228.01 138.02 199.9 96.13 225.69 71.03"/><path class="cls-1" d="M254.57,129.57c-11,0-21.63-8.21-23-22.11h56.09c.13-23.82-16.46-38.13-33.69-38.13-18.52,0-33.54,15.87-33.54,35.26,0,19.64,15,35,34.19,35,15.43,0,26.82-8.06,31.48-22.37H274.38C270.76,125,264,129.57,254.57,129.57Zm-.65-50.22c9.72,0,18.79,7.28,21.52,18.22H232.16C235,86.12,244.72,79.35,253.92,79.35Z"/><path class="cls-1" d="M303.93,78.57V71H293.3v67h11V99.25c0-13.4,9.85-19.51,21.38-18.86V69.47C318.05,68.55,309,71.42,303.93,78.57Z"/><path class="cls-1" d="M94.77,67.33a13.46,13.46,0,1,1,8-24.28l5.92-5.92A21.23,21.23,0,0,0,94.77,32a21.92,21.92,0,0,0,0,43.84A21.08,21.08,0,0,0,105.28,73l-5-6.86A13.45,13.45,0,0,1,94.77,67.33Z"/><path class="cls-1" d="M116.29,53.88a22.08,22.08,0,0,0-5.09-14.15l-5.85,5.84a13.42,13.42,0,0,1-.78,17.52l4.94,6.75A22,22,0,0,0,116.29,53.88Z"/><path class="cls-1" d="M155,81.69c-10.56-12.87-28.35-16.24-42.66-7.7l6.06,8.82a21.27,21.27,0,0,1,27.24,4.74A26.89,26.89,0,0,1,152,105a24.8,24.8,0,0,1-8.25,18.39,21.52,21.52,0,0,1-30.9-1.76,26,26,0,0,1,1.45-35.71l-6.18-9a33.58,33.58,0,0,0-12.84,25.64c0,11.07,3,19.09,8.78,25.82,12.22,14.16,34.65,15.17,48.12,2.16A36.56,36.56,0,0,0,155,81.69Z"/><path class="cls-1" d="M122.71,12.33a13,13,0,0,0-8.43,3.09L118,19a8.25,8.25,0,1,1,.31,13.78l-3.67,3.65a13,13,0,0,0,8,2.8,13.44,13.44,0,0,0,0-26.88Z"/><path class="cls-1" d="M114.45,25.77a8.19,8.19,0,0,1,1.16-4.19l-3.72-3.49a13.58,13.58,0,0,0,.25,15.71l3.61-3.6A8.19,8.19,0,0,1,114.45,25.77Z"/><path class="cls-1" d="M104.23,13.27a5,5,0,1,1,4.62-3l2.3,2.19a8.39,8.39,0,0,0,1.15-4.22,8.08,8.08,0,1,0-16.15,0,8.16,8.16,0,0,0,8.08,8.23,8,8,0,0,0,4.45-1.37l-2.4-2.25A5,5,0,0,1,104.23,13.27Z"/></g></g></svg>